<svg version="1.0" xmlns="http://www.w3.org/2000/svg"
 width="891.000000pt" height="1024.000000pt" viewBox="0 0 891.000000 1024.000000"
 preserveAspectRatio="xMidYMid meet">

<g transform="translate(0.000000,1024.000000) scale(0.100000,-0.100000)"
fill="#000000" stroke="none">
<path d="M6056 9335 c-9 -26 -7 -32 5 -12 6 10 9 21 6 23 -2 3 -7 -2 -11 -11z"/>
<path d="M6020 9270 c-12 -17 -15 -28 -8 -25 11 5 42 55 33 55 -2 0 -13 -13
-25 -30z"/>
<path d="M5977 9203 c-3 -5 -1 -17 4 -28 6 -17 7 -16 6 8 -1 28 -3 32 -10 20z"/>
<path d="M5960 9158 c0 -9 5 -20 10 -23 13 -8 13 5 0 25 -8 13 -10 13 -10 -2z"/>
<path d="M5985 9129 c-4 -6 -13 -8 -20 -5 -10 4 -10 -1 1 -22 8 -15 14 -35 14
-44 0 -10 4 -18 10 -18 6 0 6 9 0 26 -13 33 -13 69 0 39 8 -18 9 -17 9 8 1 29
-4 34 -14 16z"/>
<path d="M6011 9104 c0 -11 3 -14 6 -6 3 7 2 16 -1 19 -3 4 -6 -2 -5 -13z"/>
<path d="M5936 9084 c-3 -9 -2 -23 4 -32 8 -14 9 -14 10 -2 0 13 2 13 11 0 9
-12 10 -12 5 3 -3 10 -6 25 -6 33 0 19 -16 18 -24 -2z"/>
<path d="M6006 9007 c-8 -38 -2 -59 12 -41 5 5 5 25 2 44 l-6 35 -8 -38z"/>
<path d="M5912 8990 c0 -14 2 -19 5 -12 2 6 2 18 0 25 -3 6 -5 1 -5 -13z"/>
<path d="M5900 8950 c0 -8 5 -22 10 -30 9 -13 10 -13 10 0 0 8 -5 22 -10 30
-9 13 -10 13 -10 0z"/>
<path d="M5893 8909 c3 -8 1 -37 -4 -63 -5 -25 -11 -88 -15 -139 -5 -88 -5
-93 14 -94 12 -1 22 6 25 16 3 14 0 17 -14 14 -14 -4 -19 0 -19 16 0 11 5 21
11 21 8 0 9 23 6 73 -4 51 -3 62 3 37 7 -26 7 -19 4 30 -4 47 -2 61 5 50 17
-24 12 2 -5 30 -8 14 -13 18 -11 9z"/>
<path d="M5879 8578 c-2 -33 -1 -47 7 -113 7 -60 7 -60 20 -30 7 17 13 44 13
60 l-1 30 -9 -32 c-5 -18 -11 -33 -12 -33 -2 0 -3 31 -2 70 0 38 -3 70 -7 70
-5 0 -9 -10 -9 -22z"/>
<path d="M5911 8588 c0 -9 -4 -25 -7 -35 -5 -17 -5 -17 6 0 6 10 9 25 7 35 -4
15 -5 15 -6 0z"/>
<path d="M6160 8496 c0 -9 5 -16 10 -16 6 0 10 4 10 9 0 6 -4 13 -10 16 -5 3
-10 -1 -10 -9z"/>
<path d="M5905 8398 c-3 -13 -2 -41 3 -63 9 -38 9 -37 8 23 0 34 -2 62 -3 62
-2 0 -5 -10 -8 -22z"/>
<path d="M6240 8336 c0 -9 5 -16 10 -16 6 0 10 4 10 9 0 6 -4 13 -10 16 -5 3
-10 -1 -10 -9z"/>
<path d="M5930 8312 c0 -3 8 -11 17 -18 13 -9 22 -9 30 -2 21 17 15 25 -17 25
-16 0 -30 -2 -30 -5z"/>
<path d="M6060 8300 c0 -11 5 -20 10 -20 6 0 10 9 10 20 0 11 -4 20 -10 20 -5
0 -10 -9 -10 -20z"/>
<path d="M5920 8282 c0 -6 5 -14 11 -17 6 -4 8 -12 6 -19 -3 -7 2 -28 10 -47
l15 -34 13 40 c15 48 18 27 5 -33 -6 -26 -7 -49 -1 -60 5 -9 22 -43 37 -74 27
-57 39 -69 46 -46 4 10 -29 88 -37 88 -2 0 -1 -10 2 -22 4 -17 3 -20 -5 -13
-17 16 -31 102 -27 172 3 50 1 61 -11 56 -13 -5 -18 -22 -15 -50 1 -7 -3 -13
-9 -13 -5 0 -10 13 -10 29 0 16 -7 34 -15 41 -9 8 -15 9 -15 2z m130 -277 c0
-5 -5 -3 -10 5 -5 8 -10 20 -10 25 0 6 5 3 10 -5 5 -8 10 -19 10 -25z"/>
<path d="M6005 8170 c-3 -5 -2 -10 4 -10 5 0 13 5 16 10 3 6 2 10 -4 10 -5 0
-13 -4 -16 -10z"/>
<path d="M6400 8095 c0 -8 7 -15 16 -15 14 0 14 3 4 15 -7 8 -14 15 -16 15 -2
0 -4 -7 -4 -15z"/>
<path d="M6055 8080 c-3 -5 1 -22 10 -37 9 -16 13 -19 9 -8 -4 11 -7 28 -8 38
0 20 -2 21 -11 7z"/>
<path d="M6065 7970 c-3 -10 -1 -28 5 -40 15 -28 21 -25 10 5 -5 14 -7 32 -4
40 4 8 4 15 1 15 -3 0 -8 -9 -12 -20z"/>
<path d="M6147 7925 c-11 -7 -25 -11 -32 -9 -8 3 -12 -3 -10 -18 4 -37 4 -38
16 -38 8 0 7 5 -1 15 -7 9 -10 18 -8 21 3 3 15 -7 27 -22 11 -15 21 -23 21
-19 0 5 -7 17 -17 27 -9 10 -13 21 -9 25 4 4 12 1 17 -7 9 -12 9 -11 4 5 -4
13 -3 16 3 10 6 -5 15 -27 20 -47 9 -33 8 -37 -6 -35 -10 1 -23 6 -30 11 -11
7 -11 4 -1 -12 7 -12 17 -18 21 -16 5 3 17 2 28 -1 16 -5 20 -14 18 -40 -2
-30 6 -42 67 -102 108 -106 205 -182 223 -176 10 4 13 2 8 -5 -12 -20 12 -22
48 -5 20 10 36 21 36 25 0 10 -49 22 -57 14 -4 -3 2 -6 11 -6 10 0 16 -5 14
-12 -7 -19 -24 -20 -41 -3 -10 9 -18 11 -22 5 -12 -20 -22 0 -19 39 3 34 0 40
-21 45 -13 3 -30 3 -38 0 -12 -4 -14 0 -10 15 4 14 -1 23 -13 28 -25 9 -45 29
-37 37 4 3 0 6 -7 6 -7 0 -19 -8 -26 -17 -12 -17 -12 -17 -11 2 1 12 -4 20
-13 20 -8 0 -27 11 -42 24 -23 20 -26 27 -15 40 10 14 10 14 -5 3 -11 -9 -18
-10 -23 -2 -3 5 -1 10 4 10 15 0 14 60 -1 65 -7 3 -14 21 -15 39 -2 36 -18 76
-31 76 -4 0 -15 -7 -25 -15z m163 -255 c0 -5 -2 -10 -4 -10 -3 0 -8 5 -11 10
-3 6 -1 10 4 10 6 0 11 -4 11 -10z m53 -38 c10 -10 14 -22 10 -25 -3 -4 -1 -7
5 -7 5 0 12 3 15 8 2 4 2 1 1 -5 -2 -7 7 -19 19 -28 28 -19 48 -19 23 0 -16
12 -17 15 -4 15 22 0 43 -26 26 -33 -10 -4 -10 -8 2 -16 8 -5 12 -12 9 -16 -8
-7 -96 61 -109 85 -6 11 -17 20 -25 20 -8 0 -15 5 -15 10 0 16 26 11 43 -8z"/>
<path d="M6170 7796 c0 -2 7 -9 15 -16 13 -11 14 -10 9 4 -5 14 -24 23 -24 12z"/>
<path d="M6800 7720 l0 -40 40 0 c45 0 54 14 15 24 -15 4 -27 16 -31 31 -10
39 -24 30 -24 -15z"/>
<path d="M6250 7734 c0 -2 9 -8 19 -13 13 -8 22 -7 29 2 8 9 3 12 -19 13 -16
1 -29 0 -29 -2z"/>
<path d="M6536 7671 c-4 -5 -2 -12 3 -15 5 -4 12 -2 15 3 4 5 2 12 -3 15 -5 4
-12 2 -15 -3z"/>
<path d="M7120 7530 c0 -5 14 -10 31 -10 17 0 28 4 24 10 -3 6 -17 10 -31 10
-13 0 -24 -4 -24 -10z"/>
<path d="M6619 7468 c-1 -7 -1 -19 0 -26 2 -10 -5 -12 -21 -7 -19 5 -18 3 7
-14 17 -12 35 -21 40 -21 6 0 4 4 -4 9 -15 10 -7 31 13 31 8 0 19 6 25 14 9
11 8 15 -5 20 -26 10 -54 7 -55 -6z"/>
<path d="M7360 7450 c0 -5 7 -10 16 -10 8 0 12 5 9 10 -3 6 -10 10 -16 10 -5
0 -9 -4 -9 -10z"/>
<path d="M6678 7433 c7 -3 16 -2 19 1 4 3 -2 6 -13 5 -11 0 -14 -3 -6 -6z"/>
<path d="M6660 7415 c14 -8 19 -14 11 -15 -8 0 -12 -2 -9 -5 3 -3 13 -2 23 1
15 6 15 8 -6 20 -13 7 -28 13 -34 13 -5 0 1 -6 15 -14z"/>
<path d="M7856 7391 c-11 -4 -15 -10 -10 -13 5 -4 20 0 34 8 26 14 9 18 -24 5z"/>
<path d="M6695 7380 c-3 -5 -2 -10 4 -10 5 0 13 5 16 10 3 6 2 10 -4 10 -5 0
-13 -4 -16 -10z"/>
<path d="M7521 7376 c12 -10 79 -16 79 -6 0 5 -19 10 -42 10 -23 0 -39 -2 -37
-4z"/>
<path d="M7680 7371 c0 -6 -19 -14 -42 -20 l-43 -11 43 4 c50 5 54 0 10 -14
-33 -10 -19 -9 52 4 l35 7 -30 -16 c-16 -8 -22 -13 -12 -10 11 3 31 8 45 12
l26 6 -25 9 -24 9 25 14 c25 14 24 14 -17 15 -24 0 -43 -4 -43 -9z"/>
<path d="M6825 7358 c-9 -6 -31 -7 -48 -4 -32 5 -32 5 -8 -8 14 -8 30 -12 37
-9 7 2 15 0 19 -6 8 -14 25 -14 25 -1 0 6 -7 10 -17 10 -9 0 -14 3 -10 6 8 9
59 -5 53 -14 -2 -4 14 -8 36 -7 32 0 42 4 44 18 2 13 -2 16 -16 12 -10 -3 -36
-2 -58 3 -24 6 -46 6 -57 0z m108 -25 c-7 -2 -19 -2 -25 0 -7 3 -2 5 12 5 14
0 19 -2 13 -5z"/>
<path d="M7016 7347 c-20 -15 -14 -37 9 -37 19 0 28 17 18 35 -8 13 -12 13
-27 2z"/>
<path d="M7758 7349 c12 -5 32 -5 44 0 18 6 13 8 -22 8 -35 0 -40 -2 -22 -8z"/>
<path d="M7060 7336 c0 -2 7 -9 15 -16 9 -7 15 -8 15 -2 0 5 -7 12 -15 16 -8
3 -15 4 -15 2z"/>
<path d="M7511 7324 c13 -16 39 -19 39 -5 0 5 -11 11 -25 13 -20 4 -23 3 -14
-8z"/>
<path d="M7100 7320 c0 -5 3 -10 8 -11 4 0 27 -2 50 -5 31 -3 43 -1 40 8 -5
15 -98 23 -98 8z"/>
<path d="M7365 7321 c-21 -20 12 -23 97 -8 45 8 25 17 -30 15 -35 -1 -65 -4
-67 -7z"/>
<path d="M6926 7301 c-3 -5 10 -9 29 -9 19 0 32 4 29 9 -3 5 -16 9 -29 9 -13
0 -26 -4 -29 -9z"/>
<path d="M7600 7299 c0 -5 9 -9 20 -9 11 0 20 2 20 4 0 2 -9 6 -20 9 -11 3
-20 1 -20 -4z"/>
<path d="M7210 7284 c0 -14 8 -16 45 -12 25 3 45 2 45 -3 0 -4 -19 -10 -42
-12 -24 -2 2 -3 57 -3 55 0 88 2 72 4 -15 2 -25 7 -22 11 2 5 -8 7 -23 5 -15
-2 -19 -1 -9 2 39 12 13 24 -53 24 -58 0 -70 -3 -70 -16z"/>
<path d="M7018 7273 c7 -3 16 -2 19 1 4 3 -2 6 -13 5 -11 0 -14 -3 -6 -6z"/>
<path d="M7083 7263 c9 -2 23 -2 30 0 6 3 -1 5 -18 5 -16 0 -22 -2 -12 -5z"/>
<path d="M7453 7263 c9 -2 23 -2 30 0 6 3 -1 5 -18 5 -16 0 -22 -2 -12 -5z"/>
<path d="M7168 7253 c6 -2 18 -2 25 0 6 3 1 5 -13 5 -14 0 -19 -2 -12 -5z"/>
<path d="M225 2875 c0 -709 1 -1001 2 -648 2 353 2 933 0 1290 -1 356 -2 68
-2 -642z"/>
<path d="M307 3833 c-4 -3 -6 -506 -5 -1117 l2 -1111 6 1115 c3 613 5 1116 4
1118 0 1 -4 -1 -7 -5z"/>
<path d="M400 3695 c0 -8 7 -15 16 -15 14 0 14 3 4 15 -7 8 -14 15 -16 15 -2
0 -4 -7 -4 -15z"/>
<path d="M640 3320 c0 -29 4 -40 15 -40 11 0 15 11 15 40 0 29 -4 40 -15 40
-11 0 -15 -11 -15 -40z"/>
<path d="M800 3135 c0 -8 7 -15 16 -15 14 0 14 3 4 15 -7 8 -14 15 -16 15 -2
0 -4 -7 -4 -15z"/>
<path d="M880 3055 c0 -8 7 -15 16 -15 14 0 14 3 4 15 -7 8 -14 15 -16 15 -2
0 -4 -7 -4 -15z"/>
<path d="M960 2975 c0 -8 7 -15 16 -15 14 0 14 3 4 15 -7 8 -14 15 -16 15 -2
0 -4 -7 -4 -15z"/>
<path d="M1040 2895 c0 -8 7 -15 16 -15 14 0 14 3 4 15 -7 8 -14 15 -16 15 -2
0 -4 -7 -4 -15z"/>
<path d="M1120 2815 c0 -8 7 -15 16 -15 14 0 14 3 4 15 -7 8 -14 15 -16 15 -2
0 -4 -7 -4 -15z"/>
<path d="M1200 2735 c0 -8 7 -15 16 -15 14 0 14 3 4 15 -7 8 -14 15 -16 15 -2
0 -4 -7 -4 -15z"/>
<path d="M1280 2655 c0 -8 7 -15 16 -15 14 0 14 3 4 15 -7 8 -14 15 -16 15 -2
0 -4 -7 -4 -15z"/>
<path d="M1445 2590 c-3 -5 -2 -10 4 -10 5 0 13 5 16 10 3 6 2 10 -4 10 -5 0
-13 -4 -16 -10z"/>
<path d="M1360 2575 c0 -8 7 -15 16 -15 14 0 14 3 4 15 -7 8 -14 15 -16 15 -2
0 -4 -7 -4 -15z"/>
<path d="M1520 2415 c0 -8 7 -15 16 -15 14 0 14 3 4 15 -7 8 -14 15 -16 15 -2
0 -4 -7 -4 -15z"/>
<path d="M1760 2255 c0 -8 7 -15 16 -15 14 0 14 3 4 15 -7 8 -14 15 -16 15 -2
0 -4 -7 -4 -15z"/>
<path d="M2000 2095 c0 -8 7 -15 16 -15 14 0 14 3 4 15 -7 8 -14 15 -16 15 -2
0 -4 -7 -4 -15z"/>
<path d="M2480 1775 c0 -12 13 -15 56 -15 49 0 55 2 44 15 -8 9 -30 15 -56 15
-32 0 -44 -4 -44 -15z"/>
<path d="M2800 1640 c0 -5 18 -10 40 -10 22 0 40 5 40 10 0 6 -18 10 -40 10
-22 0 -40 -4 -40 -10z"/>
<path d="M3118 1638 c6 -6 18 -8 28 -6 14 3 12 5 -9 10 -19 3 -25 2 -19 -4z"/>
<path d="M3133 1613 c9 -2 23 -2 30 0 6 3 -1 5 -18 5 -16 0 -22 -2 -12 -5z"/>
<path d="M2978 1603 c12 -2 32 -2 45 0 12 2 2 4 -23 4 -25 0 -35 -2 -22 -4z"/>
<path d="M3148 1293 c7 -3 16 -2 19 1 4 3 -2 6 -13 5 -11 0 -14 -3 -6 -6z"/>
<path d="M4051 1264 c0 -11 3 -14 6 -6 3 7 2 16 -1 19 -3 4 -6 -2 -5 -13z"/>
<path d="M5957 1259 c7 -7 15 -10 18 -7 3 3 -2 9 -12 12 -14 6 -15 5 -6 -5z"/>
<path d="M7061 1254 c0 -11 3 -14 6 -6 3 7 2 16 -1 19 -3 4 -6 -2 -5 -13z"/>
<path d="M3736 1251 c-3 -5 1 -11 9 -14 9 -4 12 -1 8 9 -6 16 -10 17 -17 5z"/>
<path d="M503 1243 c15 -2 39 -2 55 0 15 2 2 4 -28 4 -30 0 -43 -2 -27 -4z"/>
<path d="M618 1243 c7 -3 16 -2 19 1 4 3 -2 6 -13 5 -11 0 -14 -3 -6 -6z"/>
<path d="M868 1243 c23 -2 61 -2 85 0 23 2 4 4 -43 4 -47 0 -66 -2 -42 -4z"/>
<path d="M1568 1243 c29 -2 74 -2 100 0 26 2 2 3 -53 3 -55 0 -76 -1 -47 -3z"/>
<path d="M2258 1243 c12 -2 32 -2 45 0 12 2 2 4 -23 4 -25 0 -35 -2 -22 -4z"/>
<path d="M2338 1243 c7 -3 16 -2 19 1 4 3 -2 6 -13 5 -11 0 -14 -3 -6 -6z"/>
<path d="M2903 1243 c15 -2 39 -2 55 0 15 2 2 4 -28 4 -30 0 -43 -2 -27 -4z"/>
<path d="M2998 1243 c7 -3 16 -2 19 1 4 3 -2 6 -13 5 -11 0 -14 -3 -6 -6z"/>
<path d="M3938 1243 c12 -2 32 -2 45 0 12 2 2 4 -23 4 -25 0 -35 -2 -22 -4z"/>
<path d="M5213 1243 c15 -2 37 -2 50 0 12 2 0 4 -28 4 -27 0 -38 -2 -22 -4z"/>
<path d="M5328 1243 c6 -2 18 -2 25 0 6 3 1 5 -13 5 -14 0 -19 -2 -12 -5z"/>
<path d="M5778 1243 c17 -2 47 -2 65 0 17 2 3 4 -33 4 -36 0 -50 -2 -32 -4z"/>
<path d="M6398 1243 c23 -2 59 -2 80 0 20 2 1 4 -43 4 -44 0 -61 -2 -37 -4z"/>
<path d="M7329 1223 l-24 -28 28 24 c15 14 27 26 27 28 0 8 -8 1 -31 -24z"/>
<path d="M7538 1243 c12 -2 32 -2 45 0 12 2 2 4 -23 4 -25 0 -35 -2 -22 -4z"/>
<path d="M8338 1243 c17 -2 47 -2 65 0 17 2 3 4 -33 4 -36 0 -50 -2 -32 -4z"/>
<path d="M3705 1219 c-4 -6 -5 -12 -2 -15 2 -3 7 2 10 11 7 17 1 20 -8 4z"/>
<path d="M6000 1221 c0 -6 4 -13 10 -16 6 -3 7 1 4 9 -7 18 -14 21 -14 7z"/>
<path d="M7399 1213 c-13 -16 -12 -17 4 -4 16 13 21 21 13 21 -2 0 -10 -8 -17
-17z"/>
<path d="M3731 1217 c2 -1 13 -9 24 -17 19 -14 19 -14 6 3 -7 9 -18 17 -24 17
-6 0 -8 -1 -6 -3z"/>
<path d="M1126 1198 c3 -5 10 -6 15 -3 13 9 11 12 -6 12 -8 0 -12 -4 -9 -9z"/>
<path d="M2725 1189 c-4 -6 -5 -12 -2 -15 2 -3 7 2 10 11 7 17 1 20 -8 4z"/>
<path d="M4476 1133 c-6 -14 -5 -15 5 -6 7 7 10 15 7 18 -3 3 -9 -2 -12 -12z"/>
<path d="M4462 1080 c0 -14 2 -19 5 -12 2 6 2 18 0 25 -3 6 -5 1 -5 -13z"/>
<path d="M2471 1074 c0 -11 3 -14 6 -6 3 7 2 16 -1 19 -3 4 -6 -2 -5 -13z"/>
<path d="M1192 1035 c0 -16 2 -22 5 -12 2 9 2 23 0 30 -3 6 -5 -1 -5 -18z"/>
<path d="M3016 1037 c3 -10 9 -15 12 -12 3 3 0 11 -7 18 -10 9 -11 8 -5 -6z"/>
<path d="M4471 1034 c0 -11 3 -14 6 -6 3 7 2 16 -1 19 -3 4 -6 -2 -5 -13z"/>
<path d="M6101 1024 c0 -11 3 -14 6 -6 3 7 2 16 -1 19 -3 4 -6 -2 -5 -13z"/>
<path d="M4450 1006 c0 -22 3 -27 11 -19 8 8 8 16 0 30 -9 16 -10 14 -11 -11z"/>
<path d="M7261 1014 c0 -11 3 -14 6 -6 3 7 2 16 -1 19 -3 4 -6 -2 -5 -13z"/>
<path d="M4471 972 c-8 -18 -11 -35 -7 -39 3 -3 6 1 6 10 0 8 5 17 11 19 6 2
10 13 7 23 -3 16 -6 14 -17 -13z"/>
<path d="M5436 974 c-5 -14 -4 -15 9 -4 17 14 19 20 6 20 -5 0 -12 -7 -15 -16z"/>
<path d="M8046 967 c3 -10 9 -15 12 -12 3 3 0 11 -7 18 -10 9 -11 8 -5 -6z"/>
<path d="M2541 944 c0 -11 3 -14 6 -6 3 7 2 16 -1 19 -3 4 -6 -2 -5 -13z"/>
<path d="M4500 924 c0 -10 -6 -14 -14 -11 -10 4 -12 0 -9 -14 3 -10 9 -19 14
-19 5 0 9 -7 9 -15 0 -25 60 -83 113 -109 63 -31 194 -47 194 -25 0 10 -13 13
-51 11 -28 -1 -66 0 -84 3 -28 5 -33 10 -29 26 3 10 1 17 -4 13 -5 -3 -9 0 -9
6 0 6 -5 8 -11 4 -8 -4 -7 -9 2 -16 11 -7 9 -8 -4 -4 -10 3 -23 6 -28 6 -6 0
-8 4 -5 9 3 5 -2 8 -12 7 -9 0 -16 5 -14 12 1 7 -3 22 -9 33 -8 15 -7 24 2 35
7 9 8 14 1 14 -6 0 -12 -6 -15 -12 -3 -9 -10 -8 -23 6 -11 10 -14 16 -7 12 15
-8 25 8 17 28 -8 21 -24 21 -24 0z m50 -107 c0 -5 -9 0 -20 13 -11 13 -20 28
-20 34 1 14 40 -32 40 -47z"/>
<path d="M3310 895 c0 -8 4 -15 10 -15 5 0 7 7 4 15 -4 8 -8 15 -10 15 -2 0
-4 -7 -4 -15z"/>
<path d="M300 880 c-9 -6 -10 -10 -3 -10 6 0 15 5 18 10 8 12 4 12 -15 0z"/>
<path d="M2720 861 c0 -6 4 -13 10 -16 6 -3 7 1 4 9 -7 18 -14 21 -14 7z"/>
<path d="M4567 844 c-9 -10 4 -34 19 -34 8 0 14 4 14 9 0 12 -26 32 -33 25z"/>
<path d="M1049 823 c-13 -16 -12 -17 4 -4 9 7 17 15 17 17 0 8 -8 3 -21 -13z"/>
<path d="M2400 820 c-9 -6 -10 -10 -3 -10 6 0 15 5 18 10 8 12 4 12 -15 0z"/>
<path d="M300 801 c0 -6 4 -13 10 -16 6 -3 7 1 4 9 -7 18 -14 21 -14 7z"/>
<path d="M1330 806 c0 -2 8 -10 18 -17 15 -13 16 -12 3 4 -13 16 -21 21 -21
13z"/>
<path d="M3746 785 c10 -8 23 -15 28 -15 6 0 1 7 -10 15 -10 8 -23 15 -28 15
-6 0 -1 -7 10 -15z"/>
<path d="M2435 780 c-3 -6 1 -7 9 -4 18 7 21 14 7 14 -6 0 -13 -4 -16 -10z"/>
<path d="M6210 786 c0 -2 7 -7 16 -10 8 -3 12 -2 9 4 -6 10 -25 14 -25 6z"/>
<path d="M1420 760 c-9 -6 -10 -10 -3 -10 6 0 15 5 18 10 8 12 4 12 -15 0z"/>
<path d="M4675 760 c11 -5 29 -9 40 -9 17 -1 17 1 5 9 -8 5 -26 9 -40 9 -23 0
-23 -1 -5 -9z"/>
<path d="M4835 740 c-3 -5 -2 -10 4 -10 5 0 13 5 16 10 3 6 2 10 -4 10 -5 0
-13 -4 -16 -10z"/>
<path d="M900 446 c0 -2 9 -6 20 -9 11 -3 18 -1 14 4 -5 9 -34 13 -34 5z"/>
<path d="M1455 440 c3 -5 8 -10 11 -10 2 0 4 5 4 10 0 6 -5 10 -11 10 -5 0 -7
-4 -4 -10z"/>
<path d="M2030 430 c-9 -6 -10 -10 -3 -10 6 0 15 5 18 10 8 12 4 12 -15 0z"/>
<path d="M650 426 c0 -2 8 -10 18 -17 15 -13 16 -12 3 4 -13 16 -21 21 -21 13z"/>
<path d="M1655 319 c-4 -6 -5 -12 -2 -15 2 -3 7 2 10 11 7 17 1 20 -8 4z"/>
<path d="M741 304 c0 -11 3 -14 6 -6 3 7 2 16 -1 19 -3 4 -6 -2 -5 -13z"/>
<path d="M675 260 c2 -27 10 -33 12 -10 1 11 -2 22 -6 24 -4 3 -7 -4 -6 -14z"/>
<path d="M1240 251 c0 -6 4 -13 10 -16 6 -3 7 1 4 9 -7 18 -14 21 -14 7z"/>
<path d="M2426 233 c-6 -14 -5 -15 5 -6 7 7 10 15 7 18 -3 3 -9 -2 -12 -12z"/>
<path d="M2556 222 c-3 -5 1 -9 9 -9 8 0 12 4 9 9 -3 4 -7 8 -9 8 -2 0 -6 -4
-9 -8z"/>
<path d="M2718 223 c7 -3 16 -2 19 1 4 3 -2 6 -13 5 -11 0 -14 -3 -6 -6z"/>
<path d="M1082 194 c10 -10 20 -16 22 -13 3 3 -5 11 -17 18 -21 13 -21 12 -5
-5z"/>
<path d="M2020 206 c0 -3 9 -10 20 -16 11 -6 20 -8 20 -6 0 3 -9 10 -20 16
-11 6 -20 8 -20 6z"/>
<path d="M1666 188 c3 -4 11 -5 19 -1 21 7 19 12 -4 10 -11 0 -18 -5 -15 -9z"/>
<path d="M2175 190 c3 -5 8 -10 11 -10 2 0 4 5 4 10 0 6 -5 10 -11 10 -5 0 -7
-4 -4 -10z"/>
<path d="M1148 183 c7 -3 16 -2 19 1 4 3 -2 6 -13 5 -11 0 -14 -3 -6 -6z"/>
</g>
</svg>
